<svg width="300" height="36" viewBox="0 0 300 36" fill="none" xmlns="http://www.w3.org/2000/svg">
<path d="M26.68 16.89C26.1338 12.5875 22.45 9.25 18 9.25C14.555 9.25 11.5625 11.2637 10.1962 14.4375C7.51125 15.24 5.5 17.775 5.5 20.5C5.5 23.9462 8.30375 26.75 11.75 26.75H25.5C28.2575 26.75 30.5 24.5075 30.5 21.75C30.4981 20.6295 30.1208 19.542 29.4284 18.661C28.7359 17.7801 27.7683 17.1566 26.68 16.89V16.89ZM25.5 24.25H11.75C9.6825 24.25 8 22.5675 8 20.5C8 18.745 9.49875 17.055 11.3412 16.7312L12.0675 16.6038L12.3075 15.9062C13.1863 13.3425 15.3687 11.75 18 11.75C21.4462 11.75 24.25 14.5538 24.25 18V19.25H25.5C26.8788 19.25 28 20.3712 28 21.75C28 23.1288 26.8788 24.25 25.5 24.25Z" fill="#F8F8F8"/>
<path d="M165.5 8H163V13H158V15.5H165.5V8ZM163 28H165.5V20.5H158V23H163V28ZM178 20.5H170.5V28H173V23H178V20.5ZM178 13H173V8H170.5V15.5H178V13Z" fill="#F8F8F8"/>
<path d="M108 29.25H120.025C120.746 29.2504 121.459 29.0945 122.115 28.793C122.77 28.4916 123.352 28.0517 123.821 27.5038L130.199 20.0638C130.332 19.9082 130.426 19.7223 130.47 19.5222C130.515 19.3222 130.51 19.1142 130.455 18.9166C130.401 18.719 130.298 18.5379 130.157 18.3891C130.016 18.2404 129.841 18.1287 129.646 18.0638L127.186 17.2438C126.592 17.0505 125.959 17.0068 125.343 17.1164C124.728 17.2261 124.149 17.4858 123.657 17.8725L119.676 21.0563L118.905 19.5125C118.492 18.6804 117.854 17.9805 117.063 17.4923C116.273 17.0041 115.362 16.7469 114.432 16.75H108C106.621 16.75 105.5 17.8713 105.5 19.25V26.75C105.5 28.1288 106.621 29.25 108 29.25ZM108 19.25H114.432C115.386 19.25 116.243 19.7788 116.669 20.6313L117.227 21.75H111.75V24.25H119.267C119.46 24.2475 119.649 24.2004 119.82 24.1125L119.824 24.1113L119.829 24.1088H119.832L119.835 24.1075H119.84L119.841 24.1063C119.852 24.11 119.845 24.105 119.845 24.105C119.857 24.105 119.847 24.1038 119.847 24.1038H119.849L119.851 24.1025L119.855 24.1013L119.858 24.1L119.86 24.0988L119.864 24.0975L119.866 24.0963C119.87 24.0963 119.867 24.095 119.869 24.095L119.873 24.0925L119.875 24.0913L119.877 24.09L119.881 24.0888L119.884 24.0875H119.885L119.888 24.0863H119.889L119.891 24.085L119.894 24.0838C119.905 24.0825 119.897 24.0825 119.897 24.0825L119.9 24.0813C119.948 24.0522 119.994 24.0196 120.038 23.9838L125.22 19.8375C125.547 19.5775 125.999 19.4963 126.395 19.6288L127.091 19.8613L121.925 25.89C121.687 26.1599 121.395 26.3761 121.067 26.5243C120.74 26.6726 120.385 26.7495 120.025 26.75H108V19.25V19.25ZM123 5.50001H122.979C122.775 5.50251 121.721 5.54876 120.5 6.38126C119.311 5.57126 118.282 5.50626 118.04 5.50126L118.002 5.50001H117.998C116.996 5.50001 116.054 5.89126 115.349 6.59751C114.641 7.30626 114.25 8.24751 114.25 9.25001C114.25 10.2525 114.641 11.1938 115.326 11.88L119.594 16.3625C119.711 16.4844 119.852 16.5813 120.008 16.6475C120.164 16.7137 120.331 16.7477 120.5 16.7476C120.67 16.7475 120.837 16.7132 120.993 16.6468C121.148 16.5804 121.289 16.4833 121.406 16.3613L125.651 11.9013C126.36 11.1938 126.75 10.2525 126.75 9.25001C126.75 8.24751 126.359 7.30626 125.652 6.59876C125.305 6.24944 124.892 5.97246 124.438 5.78386C123.983 5.59525 123.495 5.49877 123.003 5.50001H123ZM124.25 9.25001C124.25 9.58376 124.12 9.89751 123.861 10.1563L120.5 13.6875L117.116 10.1338C116.88 9.89751 116.75 9.58376 116.75 9.25001C116.75 8.91626 116.88 8.60251 117.117 8.36501C117.344 8.13508 117.651 8.00388 117.974 8.00001C118.005 8.00126 118.601 8.04001 119.307 8.60626C119.409 8.68751 119.511 8.78001 119.616 8.88376L120.5 9.76751L121.384 8.88376C121.489 8.78001 121.591 8.68751 121.693 8.60626C122.354 8.07501 122.913 8.00876 123.008 8.00126C123.17 8.00123 123.332 8.03347 123.482 8.09612C123.633 8.15876 123.769 8.25058 123.884 8.36626C124.12 8.60251 124.25 8.91626 124.25 9.25001Z" fill="#F8F8F8"/>
<path d="M74.875 8C72.4625 8 70.5 9.9625 70.5 12.375C70.5 14.3175 71.7813 15.9487 73.5375 16.5187C73.355 17.6837 72.8537 18.6437 72 19.4225C69.5675 21.6387 65.0912 21.8413 63 21.8063V14.0462C64.8 13.5037 66.125 11.85 66.125 9.875C66.125 7.4625 64.1625 5.5 61.75 5.5C59.3375 5.5 57.375 7.4625 57.375 9.875C57.375 11.85 58.7 13.5037 60.5 14.0462V21.9538C58.7 22.4963 57.375 24.15 57.375 26.125C57.375 28.5375 59.3375 30.5 61.75 30.5C64.1625 30.5 66.125 28.5375 66.125 26.125C66.125 25.4363 65.95 24.7938 65.6663 24.2138C68.2413 23.9813 71.4875 23.2675 73.6775 21.2763C75.0487 20.03 75.8412 18.4462 76.0575 16.5662C77.8937 16.0475 79.25 14.375 79.25 12.375C79.25 9.9625 77.2875 8 74.875 8ZM59.875 9.875C59.875 8.84125 60.7162 8 61.75 8C62.7838 8 63.625 8.84125 63.625 9.875C63.625 10.9088 62.7838 11.75 61.75 11.75C60.7162 11.75 59.875 10.9088 59.875 9.875ZM61.75 28C60.7162 28 59.875 27.1588 59.875 26.125C59.8756 25.632 60.0704 25.1591 60.4171 24.8087C60.7638 24.4582 61.2346 24.2584 61.7275 24.2525L61.89 24.265C62.1352 24.2742 62.3763 24.3316 62.5993 24.4339C62.8224 24.5363 63.0231 24.6816 63.19 24.8615C63.3569 25.0414 63.4868 25.2524 63.5721 25.4825C63.6575 25.7126 63.6967 25.9573 63.6875 26.2025C63.6783 26.4477 63.6209 26.6888 63.5186 26.9118C63.4162 27.1349 63.2709 27.3356 63.091 27.5025C62.9111 27.6694 62.7001 27.7993 62.47 27.8846C62.2399 27.97 61.9952 28.0092 61.75 28ZM74.875 14.25C73.8412 14.25 73 13.4088 73 12.375C73 11.3412 73.8412 10.5 74.875 10.5C75.9088 10.5 76.75 11.3412 76.75 12.375C76.75 13.4088 75.9088 14.25 74.875 14.25Z" fill="#F8F8F8"/>
</svg>
