<svg width="300" height="36" viewBox="0 0 300 36" fill="none" xmlns="http://www.w3.org/2000/svg">
<path d="M26.125 5.5H11.125C8.7125 5.5 6.75 7.4625 6.75 9.875V30.5L15.5 26.125L24.25 30.5V19.25H30.5V9.875C30.5 7.4625 28.5375 5.5 26.125 5.5ZM21.75 26.455L15.5 23.33L9.25 26.455V9.875C9.25 8.84125 10.0912 8 11.125 8H22.19C21.9039 8.58385 21.7535 9.22483 21.75 9.875V26.455ZM28 16.75H24.25V9.875C24.25 8.84125 25.0912 8 26.125 8C27.1588 8 28 8.84125 28 9.875V16.75Z" fill="#F8F8F8"/>
<path d="M16.75 11.75H14.25V14.25H11.75V16.75H14.25V19.25H16.75V16.75H19.25V14.25H16.75V11.75Z" fill="#F8F8F8"/>
<path d="M68 15.5C66.625 15.5 65.5 16.625 65.5 18C65.5 19.375 66.625 20.5 68 20.5C69.375 20.5 70.5 19.375 70.5 18C70.5 16.625 69.375 15.5 68 15.5ZM75.5 15.5C74.125 15.5 73 16.625 73 18C73 19.375 74.125 20.5 75.5 20.5C76.875 20.5 78 19.375 78 18C78 16.625 76.875 15.5 75.5 15.5ZM60.5 15.5C59.125 15.5 58 16.625 58 18C58 19.375 59.125 20.5 60.5 20.5C61.875 20.5 63 19.375 63 18C63 16.625 61.875 15.5 60.5 15.5Z" fill="#F8F8F8"/>
<path d="M118 14.25C117.007 14.2566 116.057 14.6537 115.356 15.3556C114.654 16.0574 114.257 17.0075 114.25 18C114.25 20.0525 115.948 21.75 118 21.75C120.051 21.75 121.75 20.0525 121.75 18C121.75 15.9487 120.051 14.25 118 14.25Z" fill="#F8F8F8"/>
<path d="M118 9.25C108.459 9.25 105.591 17.5213 105.565 17.605L105.432 18L105.564 18.395C105.591 18.4787 108.459 26.75 118 26.75C127.541 26.75 130.409 18.4787 130.435 18.395L130.567 18L130.436 17.605C130.409 17.5213 127.541 9.25 118 9.25ZM118 24.25C111.311 24.25 108.72 19.4425 108.092 18C108.722 16.5525 111.315 11.75 118 11.75C124.689 11.75 127.28 16.5575 127.907 18C127.277 19.4475 124.685 24.25 118 24.25V24.25Z" fill="#F8F8F8"/>
<path d="M169.25 11.8125V8C169.25 7.66848 169.382 7.35054 169.616 7.11612C169.851 6.8817 170.168 6.75 170.5 6.75C170.828 6.75138 171.142 6.88157 171.375 7.1125L180.125 15.8625C180.242 15.9787 180.335 16.117 180.399 16.2693C180.462 16.4216 180.495 16.585 180.495 16.75C180.495 16.915 180.462 17.0784 180.399 17.2307C180.335 17.383 180.242 17.5213 180.125 17.6375L171.375 26.3875C171.2 26.5595 170.977 26.676 170.736 26.7224C170.495 26.7687 170.245 26.743 170.018 26.6483C169.792 26.5536 169.598 26.3942 169.461 26.1899C169.324 25.9857 169.251 25.7457 169.25 25.5V21.625H168.188C166.213 21.5955 164.255 21.9962 162.45 22.7992C160.646 23.6022 159.038 24.7882 157.738 26.275C157.581 26.4836 157.363 26.6379 157.114 26.7164C156.865 26.7949 156.598 26.7935 156.35 26.7125C156.098 26.6273 155.879 26.4638 155.726 26.2457C155.573 26.0275 155.494 25.7663 155.5 25.5C155.5 14.1 165.6 12.15 169.25 11.8125V11.8125ZM168.188 19.1C169.024 19.0974 169.859 19.1517 170.688 19.2625C170.983 19.3074 171.253 19.457 171.448 19.6841C171.643 19.9112 171.75 20.2007 171.75 20.5V22.4875L177.475 16.75L171.75 11.0125V13C171.75 13.3315 171.618 13.6495 171.384 13.8839C171.149 14.1183 170.832 14.25 170.5 14.25C169.363 14.25 160.363 14.5 158.413 22.2875C161.243 20.2007 164.671 19.0828 168.188 19.1V19.1Z" fill="#F8F8F8"/>
</svg>
