<svg width="500" height="500" fill="none" xmlns="http://www.w3.org/2000/svg"><path fill="#fff" d="M0 0h500v500H0z"/><circle cx="107" cy="107" r="27" fill="#4857EC" fill-opacity=".1"/><path d="M111 111c-1 2-3 2-4 2-2 0-4 0-5-2m19-4l-1 5-3 5-5 3-5 1-6-1-5-3-3-5-1-5c0-3 2-7 4-9 3-3 7-4 11-4 3 0 7 1 10 4 2 2 4 6 4 9z" stroke="#4857EC" stroke-width="3" stroke-linecap="round" stroke-linejoin="round"/><circle cx="27" cy="107" r="27" fill="#BCFF87" fill-opacity=".5"/><path d="M41 112l1-5c0-3-2-7-4-9-3-3-7-4-11-4-3 0-7 1-10 4-2 2-4 6-4 9l1 5 3 5 5 3 5 1 6-1 5-3 3-5z" fill="#E8FFD6"/><path d="M32 111c-1 2-3 2-5 2-1 0-3 0-4-2m19-4l-1 5-3 5-5 3-6 1-5-1-5-3-3-5-1-5c0-3 2-7 4-9 3-3 7-4 10-4 4 0 8 1 11 4 2 2 4 6 4 9z" stroke="#6AAF35" stroke-width="3" stroke-linecap="round" stroke-linejoin="round"/><circle cx="187" cy="107" r="27" fill="#FFD6D6" fill-opacity=".5"/><path d="M191 111c-1 2-3 2-4 2-2 0-4 0-5-2m19-4l-1 5-3 5-5 3-5 1-6-1-5-3-3-5-1-5c0-3 2-7 4-9 3-3 7-4 11-4 3 0 7 1 10 4 2 2 4 6 4 9z" stroke="#C66464" stroke-width="3" stroke-linecap="round" stroke-linejoin="round"/><g clip-path="url(#clip0_1175_2323)"><path d="M80 165l-1-1-1-1h-8-8l-1 1-1 1v10l1 1 1 1h16l1-1 1-1v-5-5z" fill="#000"/><path d="M68 173v-6l5 3-5 3z" fill="#FEFEFE"/></g><path d="M20 170c0-6-4-10-10-10s-10 4-10 10c0 5 4 9 8 10v-7H6v-3h2v-2c0-3 2-4 4-4h2v3h-1l-1 1v2h2v3h-2v7c4-1 8-5 8-10z" fill="#000"/><path fill-rule="evenodd" clip-rule="evenodd" d="M100 160l-6 2-4 6 1 7c2 2 4 4 6 4h1v-2c-3 1-4-1-4-1l-1-2c-1 0 0 0 0 0l2 1 3 1v-2c-2 0-4-1-4-5l1-2v-3l2 1h6l2-1v3l1 2c0 4-2 5-4 5v5h1c2 0 4-2 6-4l1-7-4-6-6-2z" fill="#000"/><path d="M127 168l-1 2 1 1 1-1-1-2zm4 0l-1 2 1 1 1-1-1-2z" fill="#000"/><path d="M135 160h-13l-2 2v14l2 2h11v-2l1 1 1 1 3 2v-18c0-1-1-2-3-2zm-3 13l-1-1 2-1-1 1h-6l-1-1 2 1-1 1-3-1 1-6 3-1-2 1 3-1h2l3 1-3-1 3 1s2 2 2 6l-3 1z" fill="#000"/><g clip-path="url(#clip1_1175_2323)" fill="#000"><path d="M40 162h6l1 1 1 1v12l-1 1-1 1H34l-1-1-1-1v-2-4-4-2l1-1 1-1h6zm0-2h-4l-3 1-1 1-1 1-1 3v8l1 3 1 1 1 1 3 1h8l3-1 1-1 1-1 1-3v-4-4l-1-3-1-1-1-1-3-1h-4z"/><path d="M40 165c-3 0-5 2-5 5s2 5 5 5 5-2 5-5-2-5-5-5zm0 8c-2 0-3-1-3-3s1-3 3-3 3 1 3 3-1 3-3 3zM47 165l-2 1-1-1 1-2 2 2z"/></g><circle cx="30" cy="30" r="30" fill="#48EC9D" fill-opacity=".2"/><path d="M20 40l4-1h1l5 1c3 0 6-1 8-3s3-4 3-7-1-5-3-7-5-3-8-3-6 1-8 3-3 4-3 7v3l2 3v1l-1 3zm-1 2h-1v-1l1-4-1-3-1-4c0-3 1-6 4-8 2-3 5-4 9-4s7 1 9 4c3 2 4 5 4 8s-1 6-4 8c-2 3-5 4-9 4l-6-1-5 1zm11-11h-1v-1-1h2v2h-1zm6 0h-1-1v-1-1h3v2h-1zm-12 0h-1v-1-1h2l1 1-1 1h-1z" fill="#08080A" fill-opacity=".96"/><circle cx="110" cy="30" r="30" fill="#8DFF33" fill-opacity=".2"/><path d="M110 30l4-2 2-4-2-4-4-1-4 1-2 4 2 4 4 2zm0 2l-5-2c-2-2-2-3-2-6 0-2 0-4 2-5l5-2 5 2c2 1 2 3 3 5l-3 6-5 2zm0-2h1v9h-1-1v-8-1h1zm-4 4v2l-4 1-1 1 2 2 7 1 7-1 2-2-1-1-4-1v-2l5 2c2 0 2 1 2 2 0 2-1 3-3 4l-8 1-8-1c-2-1-3-2-3-4 0-1 0-2 2-2l5-2z" fill="#08080A" fill-opacity=".96"/><circle cx="190" cy="30" r="30" fill="#F76D6D" fill-opacity=".2"/><path d="M179 26v13h22V26h-22zm-1-2h24l1 1v16h-25-1V25l1-1zm2-3h20v2h-20v-2zm3-4h15v2h-15v-2z" fill="#08080A" fill-opacity=".96"/><circle cx="270" cy="30" r="30" fill="#4857EC" fill-opacity=".2"/><path d="M266 38h-6l-1-1V21h-2l-1-1v-1h28v1l-1 1h-2v16l-1 1h-6l4 5h-2l-4-5h-4l-4 5h-2l4-5zm13-17h-18v15h18V21zm-14 10h-1l-1-1 1-1 4-4 4 3 3-4 1-1 1 1-1 1-4 5-4-3-3 4z" fill="#08080A" fill-opacity=".96"/><path d="M157 162h-2l-1 3-1 1h-4l-1 1 4 2v1l-1 4c-1 1 0 1 1 1l3-3h1l4 3 1-1-1-4v-1l3-2v-1h-4-1v-1l-1-3z" fill="#F9C94E"/><path d="M176 162h-2l-1 3-1 1h-4l-1 1 4 2v1l-1 4c-1 1 0 1 1 1l3-3h1l4 3 1-1-1-4v-1l3-2v-1h-4-1v-1l-1-3z" stroke="#F9C94E" stroke-linecap="round" stroke-linejoin="round"/><defs><clipPath id="clip0_1175_2323"><path fill="#fff" transform="translate(60 160)" d="M0 0h20v20H0z"/></clipPath><clipPath id="clip1_1175_2323"><path fill="#fff" transform="translate(30 160)" d="M0 0h20v20H0z"/></clipPath></defs></svg>