<svg width="360" height="60" fill="none" xmlns="http://www.w3.org/2000/svg"><g clip-path="url(#clip0_19823_995)"><path d="M20.6 36.6h18.8V18.8H22.5c-.5 0-1 .2-1.3.5-.4.4-.6.8-.6 1.3v16zm1.9-19.7h17.8l.7.2c.2.2.3.4.3.7v19.7c0 .3-.1.5-.3.7l-.7.2H19.7l-.9 1.7V20.6c0-1 .3-1.9 1-2.6.8-.7 1.6-1.1 2.7-1.1zM22 38.4c-.4.1-.7.2-1 .5-.2.2-.3.6-.3.9 0 .4.1.8.3 1l1 .5h17.4v-2.9H22zm0-1.8h19.3v4.7c-.1.5-.3.9-.6 1.3-.4.4-.8.5-1.3.5H22c-1 0-1.7-.3-2.3-.9-.7-.6-.9-1.4-.9-2.4 0-.8.2-1.7.9-2.3.6-.6 1.3-.9 2.3-.9zm4.3-17.8v7.3l2.7-2.3 2.9 2.3v-7.3h-5.6zm-1.9-1.9h9.4V28c-.1.4-.3.7-.6.9-.3.1-.7.1-1-.1L29 26.3l-3.1 2.5c-.3.2-.6.2-.9.1-.4-.2-.6-.5-.6-.9V16.9z" fill="#08080A" fill-opacity=".96"/><circle cx="30" cy="30" r="30" fill="#F7E36D" fill-opacity=".2"/><path d="M85.5 37.5h-5.8c-.3 0-.5-.1-.7-.3-.2-.2-.2-.4-.2-.6v-16h-1.9l-.7-.2c-.2-.2-.2-.4-.2-.7 0-.3 0-.5.2-.7.2-.2.4-.2.7-.2h26.2c.3 0 .5 0 .7.2.2.2.2.4.2.7 0 .3 0 .5-.2.7l-.7.2h-1.8v16l-.3.6c-.2.2-.4.3-.7.3h-5.8l3.2 5.6h-2.1l-3.3-5.6h-4.6l-3.3 5.6h-2.1l3.2-5.6zm13.9-16.9H80.6v15h18.8v-15zM85 30.7l-.6.3c-.3 0-.5-.2-.7-.3-.2-.2-.3-.4-.3-.7 0-.3.1-.5.3-.7L88 25l3.7 2.8 3.2-4c.2-.3.5-.4.9-.4.3.1.6.3.7.6.1.4.1.7-.1 1L92 30.4l-3.8-2.9-3.2 3.2z" fill="#08080A" fill-opacity=".96"/><circle cx="90" cy="30" r="30" fill="#4857EC" fill-opacity=".2"/><path d="M147.8 22.5l-2.2.1-1.2.4c-.6.3-1.1.8-1.4 1.4l-.4 1.2-.1 2.2V36l.1 2.1.4 1.3c.3.6.8 1 1.4 1.3.3.3.7.3 1.2.4l2.2.2h4.4l2.2-.2c.5-.1.9-.1 1.2-.4.6-.3 1.1-.7 1.4-1.3l.4-1.3.1-2.1v-8.2l-.1-2.2-.4-1.2c-.3-.6-.8-1.1-1.4-1.4l-1.2-.4-2.2-.1h-4.4zm0-1.9h4.4l2.8.2 1.5.6c.9.5 1.6 1.2 2.1 2.1l.6 1.5.2 2.8V36l-.2 2.7c-.2.6-.3 1.1-.6 1.6-.5.9-1.2 1.6-2.1 2.1l-1.5.6-2.8.1h-4.4L145 43l-1.5-.6c-.9-.5-1.6-1.2-2.1-2.1-.3-.5-.4-1-.6-1.6l-.2-2.7v-8.2l.2-2.8.6-1.5c.5-.9 1.2-1.6 2.1-2.1l1.5-.6 2.8-.2zm2.2 3.8c.6 0 1 .3 1 .9V29c0 .7-.4 1-1 1s-1-.3-1-1v-3.7c0-.6.4-.9 1-.9zm1-2.8l-.3.6c-.2.2-.4.3-.7.3-.3 0-.5-.1-.7-.3l-.3-.6v-1.9c0-.3 0-.5-.2-.7-.2-.2-.4-.2-.7-.2h-2.8c-.3 0-.5-.1-.7-.3l-.2-.7.2-.7.7-.2h2.8c.9 0 1.5.3 2 .8s.9 1.2.9 2v1.9z" fill="#08080A" fill-opacity=".96"/><circle cx="150" cy="30" r="30" fill="#F34" fill-opacity=".2"/><path d="M200.1 40l3.9-1.2.8.2c1.6.9 3.3 1.3 5.2 1.3 3.2-.1 5.8-1.1 8-3.1 2-2 3.2-4.4 3.3-7.2-.1-2.8-1.3-5.2-3.3-7.2-2.2-2-4.8-3-8-3.1-3.2.1-5.8 1.1-8 3.1-2 2-3.2 4.4-3.2 7.2 0 1 .2 2 .5 3s.8 2 1.5 2.8l.7.9-1.4 3.3zm-1.3 2.5c-.4.1-.8 0-1-.3-.2-.2-.3-.6-.2-.9l1.7-4.3c-.7-1-1.3-2.2-1.8-3.4-.5-1.1-.6-2.4-.6-3.6.1-3.2 1.3-6 3.7-8.4 2.4-2.4 5.6-3.6 9.4-3.8 3.8.2 7 1.4 9.4 3.8 2.4 2.4 3.6 5.2 3.7 8.4-.1 3.2-1.3 6-3.7 8.4-2.4 2.4-5.6 3.6-9.4 3.8-2.1 0-4.2-.5-6-1.4l-5.2 1.7zm11.2-11l-.7-.2c-.3-.1-.5-.3-.6-.6l-.2-.7.2-.7c.1-.3.3-.5.6-.6l.7-.2c.4 0 .8.1 1 .5.4.2.5.6.5 1s-.1.8-.5 1c-.2.4-.6.5-1 .5zm5.6 0l-.7-.2-.6-.6-.2-.7.2-.7.6-.6.7-.2c.4 0 .8.1 1.1.5.3.2.4.6.4 1s-.1.8-.4 1c-.3.4-.7.5-1.1.5zm-11.2 0l-.8-.2-.6-.6-.1-.7.1-.7.6-.6.8-.2c.4 0 .8.1 1 .5.3.2.5.6.5 1s-.2.8-.5 1c-.2.4-.6.5-1 .5z" fill="#08080A" fill-opacity=".96"/><circle cx="210" cy="30" r="30" fill="#48EC9D" fill-opacity=".2"/><path d="M270 30c1.6 0 3-.6 4-1.6 1-1.1 1.6-2.4 1.6-4s-.6-3-1.6-4c-1-1.1-2.4-1.6-4-1.6s-3 .5-4 1.6c-1 1-1.6 2.4-1.6 4s.6 2.9 1.6 4c1 1 2.4 1.6 4 1.6zm0 1.9c-2.1-.1-3.9-.9-5.3-2.2-1.4-1.4-2.1-3.2-2.2-5.3.1-2.2.8-3.9 2.2-5.4 1.4-1.3 3.2-2 5.3-2.1 2.1.1 3.9.8 5.3 2.1 1.4 1.5 2.1 3.2 2.2 5.4-.1 2.1-.8 3.9-2.2 5.3-1.4 1.3-3.2 2.1-5.3 2.2zm0-1.9c.3 0 .5 0 .7.3.2.1.3.4.3.7v7.4c0 .3-.1.6-.3.7-.2.2-.4.3-.7.3-.3 0-.5-.1-.7-.3-.2-.1-.3-.4-.3-.7V31c0-.3.1-.6.3-.7.2-.3.4-.3.7-.3zm-3.7 4v2c-1.7.2-3.1.6-4.1 1-1 .6-1.6 1-1.6 1.4.1.6 1 1.3 2.7 1.9 1.7.6 4 .9 6.7.9s5-.3 6.7-.9c1.7-.6 2.6-1.3 2.7-1.9 0-.4-.6-.8-1.6-1.4-1-.4-2.4-.8-4-1v-2c2.2.3 4 1 5.3 1.7 1.4.8 2.1 1.7 2.2 2.7-.1 1.4-1.3 2.5-3.3 3.3-2.2.9-4.8 1.3-8 1.4-3.2-.1-5.8-.5-8-1.4-2-.8-3.2-1.9-3.2-3.3 0-1 .7-1.9 2.1-2.7 1.3-.7 3.1-1.4 5.4-1.7z" fill="#08080A" fill-opacity=".96"/><circle cx="270" cy="30" r="30" fill="#8DFF33" fill-opacity=".2"/><path d="M318.8 26.3v13.1h22.5V26.3h-22.5zm-1-1.9h24.4l.7.2.2.7v15l-.2.7c-.2.2-.4.3-.7.3h-24.4c-.3 0-.5-.1-.7-.3l-.2-.7v-15l.2-.7.7-.2zm1.9-3.8h20.6v1.9h-20.6v-1.9zm2.8-3.7h15v1.9h-15v-1.9z" fill="#08080A" fill-opacity=".96"/><circle cx="330" cy="30" r="30" fill="#6DEFF7" fill-opacity=".2"/></g><defs><clipPath id="clip0_19823_995"><path fill="#fff" d="M0 0h360v60H0z"/></clipPath></defs></svg>