<svg width="300" height="36" viewBox="0 0 300 36" fill="none" xmlns="http://www.w3.org/2000/svg">
<circle cx="18" cy="18" r="18" fill="white"/>
<circle cx="68" cy="18" r="18" fill="white"/>
<circle cx="118" cy="18" r="18" fill="white"/>
<circle cx="168" cy="18" r="18" fill="white"/>
<circle cx="218" cy="18" r="18" fill="white"/>
<path d="M78 18C78 12.4771 73.5229 8 68 8C62.4771 8 58 12.4771 58 18C58 22.9912 61.6568 27.1283 66.4375 27.8785V20.8906H63.8984V18H66.4375V15.7969C66.4375 13.2906 67.9305 11.9063 70.2146 11.9063C71.3084 11.9063 72.4531 12.1016 72.4531 12.1016V14.5625H71.1922C69.95 14.5625 69.5625 15.3334 69.5625 16.125V18H72.3359L71.8926 20.8906H69.5625V27.8785C74.3432 27.1283 78 22.9912 78 18Z" fill="#888888"/>
<path d="M118 9.80078C120.672 9.80078 120.988 9.8125 122.039 9.85937C123.016 9.90234 123.543 10.0664 123.895 10.2031C124.359 10.3828 124.695 10.6016 125.043 10.9492C125.395 11.3008 125.609 11.6328 125.789 12.0977C125.926 12.4492 126.09 12.9805 126.133 13.9531C126.18 15.0078 126.191 15.3242 126.191 17.9922C126.191 20.6641 126.18 20.9805 126.133 22.0313C126.09 23.0078 125.926 23.5352 125.789 23.8867C125.609 24.3516 125.391 24.6875 125.043 25.0352C124.691 25.3867 124.359 25.6016 123.895 25.7813C123.543 25.918 123.012 26.082 122.039 26.125C120.984 26.1719 120.668 26.1836 118 26.1836C115.328 26.1836 115.012 26.1719 113.961 26.125C112.984 26.082 112.457 25.918 112.105 25.7813C111.641 25.6016 111.305 25.3828 110.957 25.0352C110.605 24.6836 110.391 24.3516 110.211 23.8867C110.074 23.5352 109.91 23.0039 109.867 22.0313C109.82 20.9766 109.809 20.6602 109.809 17.9922C109.809 15.3203 109.82 15.0039 109.867 13.9531C109.91 12.9766 110.074 12.4492 110.211 12.0977C110.391 11.6328 110.609 11.2969 110.957 10.9492C111.309 10.5977 111.641 10.3828 112.105 10.2031C112.457 10.0664 112.988 9.90234 113.961 9.85937C115.012 9.8125 115.328 9.80078 118 9.80078ZM118 8C115.285 8 114.945 8.01172 113.879 8.05859C112.816 8.10547 112.086 8.27734 111.453 8.52344C110.793 8.78125 110.234 9.12109 109.68 9.67969C109.121 10.2344 108.781 10.793 108.523 11.4492C108.277 12.0859 108.105 12.8125 108.059 13.875C108.012 14.9453 108 15.2852 108 18C108 20.7148 108.012 21.0547 108.059 22.1211C108.105 23.1836 108.277 23.9141 108.523 24.5469C108.781 25.207 109.121 25.7656 109.68 26.3203C110.234 26.875 110.793 27.2188 111.449 27.4727C112.086 27.7188 112.813 27.8906 113.875 27.9375C114.941 27.9844 115.281 27.9961 117.996 27.9961C120.711 27.9961 121.051 27.9844 122.117 27.9375C123.18 27.8906 123.91 27.7188 124.543 27.4727C125.199 27.2188 125.758 26.875 126.313 26.3203C126.867 25.7656 127.211 25.207 127.465 24.5508C127.711 23.9141 127.883 23.1875 127.93 22.125C127.977 21.0586 127.988 20.7188 127.988 18.0039C127.988 15.2891 127.977 14.9492 127.93 13.8828C127.883 12.8203 127.711 12.0898 127.465 11.457C127.219 10.793 126.879 10.2344 126.32 9.67969C125.766 9.125 125.207 8.78125 124.551 8.52734C123.914 8.28125 123.188 8.10938 122.125 8.0625C121.055 8.01172 120.715 8 118 8Z" fill="#888888"/>
<path d="M118 12.8633C115.164 12.8633 112.863 15.1641 112.863 18C112.863 20.8359 115.164 23.1367 118 23.1367C120.836 23.1367 123.137 20.8359 123.137 18C123.137 15.1641 120.836 12.8633 118 12.8633ZM118 21.332C116.16 21.332 114.668 19.8398 114.668 18C114.668 16.1602 116.16 14.668 118 14.668C119.84 14.668 121.332 16.1602 121.332 18C121.332 19.8398 119.84 21.332 118 21.332Z" fill="#888888"/>
<path d="M124.539 12.6601C124.539 13.3242 124 13.8593 123.34 13.8593C122.676 13.8593 122.141 13.3203 122.141 12.6601C122.141 11.996 122.68 11.4609 123.34 11.4609C124 11.4609 124.539 11.9999 124.539 12.6601Z" fill="#888888"/>
<path d="M172.227 8H168.856V21.6232C168.856 23.2464 167.56 24.5797 165.947 24.5797C164.334 24.5797 163.037 23.2464 163.037 21.6232C163.037 20.029 164.305 18.7246 165.86 18.6667V15.2464C162.432 15.3043 159.667 18.1159 159.667 21.6232C159.667 25.1594 162.49 28 165.976 28C169.461 28 172.285 25.1304 172.285 21.6232V14.6377C173.552 15.5652 175.108 16.1159 176.75 16.1449V12.7246C174.215 12.6377 172.227 10.5507 172.227 8Z" fill="#888888"/>
<g clip-path="url(#clip0_524_200)">
<path d="M218 11.3333L215.333 14L216.667 15.3334L219.333 12.6667C220.433 11.5667 222.233 11.5667 223.333 12.6667C224.433 13.7667 224.433 15.5667 223.333 16.6667L220.667 19.3334L222 20.6667L224.667 18C226.507 16.16 226.507 13.1733 224.667 11.3333C222.827 9.49334 219.84 9.49334 218 11.3333ZM219.333 20.6667L216.667 23.3334C215.567 24.4334 213.767 24.4334 212.667 23.3334C211.567 22.2334 211.567 20.4334 212.667 19.3334L215.333 16.6667L214 15.3334L211.333 18C209.493 19.84 209.493 22.8267 211.333 24.6667C213.173 26.5067 216.16 26.5067 218 24.6667L220.667 22L219.333 20.6667ZM214.667 20L220 14.6667L221.333 16L216 21.3334L214.667 20Z" fill="#888888"/>
</g>
<path d="M24.944 16.112C24.507 12.67 21.56 10 18 10C15.244 10 12.85 11.611 11.757 14.15C9.609 14.792 8 16.82 8 19C8 21.757 10.243 24 13 24H24C26.206 24 28 22.206 28 20C27.9985 19.1036 27.6966 18.2336 27.1427 17.5288C26.5888 16.8241 25.8147 16.3253 24.944 16.112V16.112ZM24 22H13C11.346 22 10 20.654 10 19C10 17.596 11.199 16.244 12.673 15.985L13.254 15.883L13.446 15.325C14.149 13.274 15.895 12 18 12C20.757 12 23 14.243 23 17V18H24C25.103 18 26 18.897 26 20C26 21.103 25.103 22 24 22Z" fill="#888888"/>
<defs>
<clipPath id="clip0_524_200">
<rect width="20" height="20" fill="white" transform="translate(208 8)"/>
</clipPath>
</defs>
</svg>
